HIERARCHY
ROOT Hips
{
    OFFSET 0.000000 0.000000 0.000000
    CHANNELS 6 Xposition Yposition Zposition Zrotation Xrotation Yrotation
    JOINT Spine
    {
        OFFSET -0.000000 6.925600 0.000000
        CHANNELS 3 Zrotation Xrotation Yrotation
        JOINT Spine1
        {
            OFFSET -0.000000 16.343796 0.000000
            CHANNELS 3 Zrotation Xrotation Yrotation
            JOINT Neck
            {
                OFFSET -0.000000 18.032967 0.000000
                CHANNELS 3 Zrotation Xrotation Yrotation
                JOINT Head
                {
                    OFFSET -0.000000 13.091072 1.689171
                    CHANNELS 3 Zrotation Xrotation Yrotation
                    End Site
                    {
                        OFFSET -0.000000 16.891708 0.000000
                    }
                }
            }
            JOINT LeftShoulder
            {
                OFFSET 3.336773 14.146137 -0.012206
                CHANNELS 3 Zrotation Xrotation Yrotation
                JOINT LeftArm
                {
                    OFFSET 11.765518 0.000000 0.000000
                    CHANNELS 3 Zrotation Xrotation Yrotation
                    JOINT LeftForeArm
                    {
                        OFFSET 25.163450 0.000000 0.000000
                        CHANNELS 3 Zrotation Xrotation Yrotation
                        JOINT LeftHand
                        {
                            OFFSET 21.783554 0.000000 0.000000
                            CHANNELS 3 Zrotation Xrotation Yrotation
                            End Site
                            {
                                OFFSET 12.668781 0.000000 0.000000
                            }
                        }
                    }
                }
            }
            JOINT RightShoulder
            {
                OFFSET -3.409204 14.146137 -0.012206
                CHANNELS 3 Zrotation Xrotation Yrotation
                JOINT RightArm
                {
                    OFFSET -11.765518 0.000000 0.000000
                    CHANNELS 3 Zrotation Xrotation Yrotation
                    JOINT RightForeArm
                    {
                        OFFSET -25.163450 0.000000 0.000000
                        CHANNELS 3 Zrotation Xrotation Yrotation
                        JOINT RightHand
                        {
                            OFFSET -21.783554 0.000000 0.000000
                            CHANNELS 3 Zrotation Xrotation Yrotation
                            End Site
                            {
                                OFFSET -12.668781 0.000000 0.000000
                            }
                        }
                    }
                }
            }
        }
    }
    JOINT LeftUpLeg
    {
        OFFSET 8.445854 0.000000 0.000000
        CHANNELS 3 Zrotation Xrotation Yrotation
        JOINT LeftLeg
        {
            OFFSET -0.000000 -40.674755 0.000000
            CHANNELS 3 Zrotation Xrotation Yrotation
            JOINT LeftFoot
            {
                OFFSET -0.000000 -37.111794 0.000000
                CHANNELS 3 Zrotation Xrotation Yrotation
                JOINT LeftToeBase
                {
                    OFFSET -0.000000 -5.489805 12.668781
                    CHANNELS 3 Zrotation Xrotation Yrotation
                    End Site
                    {
                        OFFSET -0.000000 0.000000 3.378341
                    }
                }
            }
        }
    }
    JOINT RightUpLeg
    {
        OFFSET -8.445854 0.000000 0.000000
        CHANNELS 3 Zrotation Xrotation Yrotation
        JOINT RightLeg
        {
            OFFSET -0.000000 -40.674755 0.000000
            CHANNELS 3 Zrotation Xrotation Yrotation
            JOINT RightFoot
            {
                OFFSET -0.000000 -37.111794 0.000000
                CHANNELS 3 Zrotation Xrotation Yrotation
                JOINT RightToeBase
                {
                    OFFSET -0.000000 -5.489805 12.668781
                    CHANNELS 3 Zrotation Xrotation Yrotation
                    End Site
                    {
                        OFFSET -0.000000 0.000000 3.378341
                    }
                }
            }
        }
    }
}
MOTION
Frames:    10
Frame Time:    0.008333
152.737457    83.403084    107.934929    -0.271180    -0.406198    -84.169518    4.620450    -11.023082    1.792296    -3.063632    12.228070    0.772297    1.882190    4.359889    8.430391    -7.681626    11.622138    10.770588    0.219969    8.565084    9.039719    -43.947430    24.893938    -38.092957    2.099147    -17.507423    -121.649734    9.219601    -13.129191    9.644940    -4.496901    5.696491    0.087803    60.965923    11.890185    46.505802    15.010450    18.177240    106.833267    -18.209341    -1.396655    -4.185757    5.244782    -7.199346    2.153254    -1.521390    21.688969    -0.918602    -3.716106    -12.141395    17.644941    -2.455705    -3.883226    -1.760573    1.384986    2.819450    4.153853    -5.311903    -0.550750    23.863539    0.082520    -10.309947    -23.964945    -5.609464    8.468466    1.859372    
152.765823    83.403206    107.909859    -0.253014    -0.412599    -84.203781    4.631184    -10.980131    1.829291    -3.041795    12.160951    0.780784    1.709923    4.371186    8.834321    -7.363200    11.578387    11.082183    0.236724    8.600925    9.003855    -43.955986    24.771431    -38.181046    0.966045    -16.409819    -122.480995    11.092013    -13.703613    10.707625    -4.510989    5.711975    0.119374    61.059868    11.915202    46.573750    14.929449    18.108234    106.934731    -17.978474    -1.403497    -4.175958    5.207890    -7.212137    2.115741    -1.351519    21.684959    -0.776824    -3.893458    -12.180056    17.512800    -2.455705    -3.883226    -1.760573    1.423606    3.170450    4.170841    -5.444958    -1.363246    23.916458    0.325905    -9.949583    -24.023750    -5.618545    8.490204    1.850766    
152.794601    83.403778    107.883659    -0.235744    -0.413924    -84.232224    4.648926    -10.930277    1.864641    -3.034834    12.149370    0.791557    1.701056    4.325269    9.829003    -7.450747    11.672663    12.129880    0.259197    8.553905    9.006001    -43.982803    23.996286    -37.662533    -4.874502    -13.377017    -123.368431    6.420422    -2.662888    8.738759    -4.478842    5.642745    0.058920    61.106098    12.028688    46.660164    14.820662    18.023729    107.051201    -17.750599    -1.394918    -4.148670    5.206349    -7.217732    2.111942    -1.335707    21.630167    -0.779949    -3.885853    -12.171854    17.549122    -2.424162    -3.831622    -1.728743    1.375499    2.778759    4.335572    -5.275913    -0.628541    23.771053    0.072301    -10.290442    -23.959326    -5.639479    8.533352    1.840790    
152.825256    83.402573    107.857895    -0.217382    -0.418087    -84.262466    3.862726    -11.016523    2.030219    -1.799722    12.357084    0.742664    1.734406    4.165992    10.016465    -7.760626    11.595102    12.391429    0.172943    8.528586    8.803336    -44.338261    24.863018    -38.224831    2.197981    -17.473526    -121.945450    8.811829    -12.943875    9.487303    -4.692958    5.472571    -0.346470    60.912296    11.936662    46.696346    14.801812    18.005251    107.353455    -17.603802    -1.496158    -4.226823    5.115411    -7.090878    -0.190643    -2.017307    21.240753    1.662476    -4.014720    -12.034298    17.555809    -2.424162    -3.831622    -1.728743    1.410946    3.140377    4.225531    -5.387026    -1.477094    23.919054    0.264786    -9.929336    -24.016907    -5.656401    8.556817    1.848846    
152.854996    83.402206    107.833839    -0.200302    -0.425266    -84.286644    3.859260    -11.005756    2.074969    -1.754503    12.358504    0.752855    1.708944    4.241865    10.371394    -7.697316    11.372972    12.724813    0.160877    8.487558    8.773621    -44.379051    24.811995    -38.360924    1.050436    -16.380884    -122.832542    11.378321    -13.451435    11.045744    -4.698925    5.482270    -0.363149    60.984436    11.972027    46.749203    14.587230    17.887939    107.543030    -17.305408    -1.357382    -4.482557    5.189957    -7.234765    2.143153    -1.271805    21.528841    -0.791494    -3.919923    -12.176074    17.574650    -2.368326    -3.774061    -1.757711    1.369275    2.735283    4.250662    -5.207483    -0.758108    23.905708    -0.068386    -10.331992    -23.958706    -5.696011    8.643232    1.823358    
152.884644    83.401093    107.809326    -0.186321    -0.423402    -84.305763    3.852870    -11.006796    2.116784    -1.692692    12.361569    0.760323    1.471632    4.214732    10.734233    -7.292344    11.359546    12.965854    0.134324    8.491380    8.761094    -44.546646    24.050156    -37.730385    -5.204761    -12.989080    -123.897575    6.561802    -2.893460    8.833910    -4.709419    5.511897    -0.364978    61.030678    12.026765    46.828796    14.436254    17.750799    107.659142    -17.195131    -1.341276    -4.430146    5.240565    -7.110478    2.132105    -1.353952    21.222158    -0.747332    -3.897979    -12.046065    17.586006    -2.368326    -3.774061    -1.757711    0.821200    2.347117    -1.649296    -3.993048    -0.495671    29.870768    -0.701991    -10.408583    -23.933321    -5.705322    8.660932    1.821062    
152.911224    83.402130    107.783676    -0.171996    -0.423498    -84.318390    3.818180    -11.005121    2.149948    -1.593450    12.374323    0.761891    1.379692    4.254525    11.050386    -7.150712    11.170234    13.232957    0.082136    8.506012    8.794213    -44.530788    24.718721    -38.171207    2.066202    -17.451647    -122.426445    9.311338    -13.069768    9.569006    -4.713521    5.552969    -0.395421    61.059952    12.085328    46.936272    14.336457    17.636894    107.759628    -17.040806    -1.363397    -4.417840    5.236598    -7.112480    2.107325    -1.338590    21.160589    -0.748694    -3.891757    -12.043248    17.617552    -2.345298    -3.715822    -1.683027    0.782142    2.276147    -1.633823    -3.780819    -0.524970    29.913666    -10.144286    -25.615284    -25.268751    -13.805028    20.803865    4.132967    
152.939423    83.401802    107.762024    -0.160895    -0.431366    -84.327858    3.777471    -10.994176    2.189126    -1.497918    12.394773    0.766078    1.624445    4.409956    11.291487    -7.579832    10.815845    13.597707    0.032557    8.500422    8.818184    -44.646194    24.030844    -37.821640    -3.718742    -14.384583    -123.594284    5.252883    -2.741988    9.084659    -4.707999    5.534919    -0.455731    61.079128    12.173360    46.997910    14.272224    17.534170    107.844543    -16.893627    -1.418722    -4.401493    5.222435    -7.112858    2.107378    -1.301162    21.106022    -0.760346    -3.917592    -12.023314    17.623676    -2.345298    -3.715822    -1.683027    0.769619    2.250048    -1.634488    -3.755500    -0.550357    29.894777    -10.328829    -25.869741    -25.264969    -14.009513    21.034710    4.265512    
152.968674    83.403107    107.735107    -0.143087    -0.425636    -84.328842    3.759947    -11.000017    2.223487    -1.425558    12.392037    0.770074    1.352758    4.388398    11.594716    -7.132632    10.796371    13.763655    0.002632    8.510130    8.801735    -44.685188    24.584198    -38.593040    0.885830    -16.137018    -123.138313    11.820695    -13.573738    9.787711    -4.728201    5.571534    -0.471544    61.151142    12.214355    47.050243    14.215431    17.455776    107.893456    -16.743876    -1.443037    -4.405040    5.227169    -7.113948    1.931563    -1.338408    21.022896    -0.575392    -3.951443    -12.031824    17.633478    -2.283296    -3.633903    -1.670313    0.763795    2.216500    -1.619113    -3.706852    -0.556785    30.015244    -10.335116    -25.747417    -25.358047    -13.944503    20.976593    4.207345    
152.996521    83.382690    107.727684    -0.136707    -0.525932    -84.329353    3.666587    -10.967376    2.268335    -1.394027    12.390076    0.785022    1.348214    4.464133    11.820107    -7.117032    10.596326    13.980280    -0.028000    8.499287    8.793959    -44.966457    23.822544    -37.851521    -4.380741    -13.330442    -123.989960    6.677711    -2.554531    9.042221    -4.737552    5.596794    -0.519814    61.240990    12.271267    47.088879    14.189707    17.394478    107.941574    -16.609343    -1.493128    -4.404288    5.103761    -7.101511    1.900820    -1.302551    20.967442    -0.556193    -3.955643    -12.019419    17.634850    -2.283296    -3.633903    -1.670313    0.653395    2.209479    -1.644002    -3.679999    -0.569375    29.917324    -10.317469    -25.761938    -25.233990    -13.924779    20.975451    4.172252    
